PathFileType	4	(X/Y/Z)	Apose_0-50.trc
DataRate	CameraRate	NumFrames	NumMarkers	Units	OrigDataRate	OrigDataStartFrame	OrigNumFrames
30	30	7	22	m	30	20	50
Frame#	Time	Hip			RHip			RKnee			RAnkle			RBigToe			RSmallToe			RHeel			LHip			LKnee			LAnkle			LBigToe			LSmallToe			LHeel			Neck			Head			Nose			RShoulder			RElbow			RWrist			LShoulder			LElbow			LWrist		
		X1	Y1	Z1	X2	Y2	Z2	X3	Y3	Z3	X4	Y4	Z4	X5	Y5	Z5	X6	Y6	Z6	X7	Y7	Z7	X8	Y8	Z8	X9	Y9	Z9	X10	Y10	Z10	X11	Y11	Z11	X12	Y12	Z12	X13	Y13	Z13	X14	Y14	Z14	X15	Y15	Z15	X16	Y16	Z16	X17	Y17	Z17	X18	Y18	Z18	X19	Y19	Z19	X20	Y20	Z20	X21	Y21	Z21	X22	Y22	Z22
21	0.7	0.04103688262970241	0.9207579236158066	0.36000289339283453	0.033873659870452995	0.8961044622195302	0.4746039846857111	0.002545691477156769	0.5060051193251612	0.501125420727492	-0.011465991249165019	0.10017501045903253	0.5170229597793761	0.20659742442405152	0.040433123418910734	0.5629075006606041	0.14917770512167766	0.03194931893001734	0.6150091755437547	-0.054933477094474145	0.02977830379428111	0.504009919884059	0.03381803105485695	0.8927721712301809	0.2463812513316444	0.013752315334643862	0.5082955149476689	0.2235104501235035	0.004413910333861246	0.11414014389427211	0.20964685827194743	0.21101962509742644	0.039159726983677944	0.18896938366337454	0.16371464313908116	0.03941385005193124	0.13133048811949793	-0.03293148883730794	0.0391996473166829	0.2216180718416596	0.06458777478312275	1.561891108766996	0.3494920687764649	0.2470462269615067	1.771023174247291	0.31478961968003044	0.3301839613233364	1.6154596892767832	0.3449404389638461	0.027792257170774957	1.492945298905615	0.5390774375133296	0.07385494974934789	1.242283450427565	0.7189531018086291	0.121375596358256	1.043918820227126	0.8929845401185759	0.017563619991732966	1.4752556192349615	0.1466654878649601	0.025358138188457783	1.227104060926948	0.003873110935369128	0.08579990074489692	1.016781862561311	-0.14418735694698362
22	0.7333333333333333	0.0410237780988064	0.9206204517664772	0.35977942504743454	0.03390396978621515	0.8963855570293696	0.4746693020005487	0.002768247447122842	0.5057790930007087	0.5002183328555325	-0.01132776908084878	0.0988905152348298	0.5174260549839366	0.2071449968685781	0.04068040150038364	0.5624814394945825	0.14807149915812318	0.031826015336382456	0.6161476144120055	-0.05402141897594911	0.03004190398343676	0.5033816505736437	0.033791665132121014	0.892629304302838	0.2460631270752796	0.014175107058277243	0.5085627342408265	0.22342813804734712	0.003468910097293288	0.11524823522099784	0.20981651187424274	0.21025320354865745	0.03860209173355895	0.1889509275494875	0.16336872233738112	0.03879356811691632	0.13064786754649182	-0.03385020823229376	0.038328833331415395	0.2213916724305561	0.06495883974323714	1.5621044144907088	0.3484862550593883	0.24518739404056566	1.7719119193605737	0.31477369565340313	0.3275899031077098	1.6156559698075115	0.3445715487901189	0.02823536518395385	1.4929864512186792	0.538581360548414	0.0728271899007767	1.2416435447459746	0.7191809440506834	0.12156723034713103	1.0439443055685107	0.8929227967821705	0.01684542282524883	1.4753927348281484	0.14765708018793822	0.026174999958861567	1.2272880126021521	0.003243541405273864	0.08749419221547061	1.0169031414770164	-0.14551024439984206
23	0.7666666666666667	0.0409147056293357	0.9204901614407609	0.35947237863376275	0.03388579152481186	0.8964814302455099	0.4746656316232331	0.0032224216745297676	0.5056149434478026	0.4994953684170878	-0.011361083174910504	0.09803774990025839	0.5175445804842222	0.20782374423702304	0.04085278923536857	0.562105847459112	0.14717111849487052	0.031584999366897716	0.617284207898964	-0.05347670787856899	0.030215983109145934	0.5026936484431088	0.03376486078000351	0.8923671656256936	0.24583904448415775	0.014936018511896907	0.5079803214804562	0.2230111994936059	0.0027951918326711363	0.11553218186062082	0.20968549669813522	0.20981008695386338	0.03837445006354647	0.18859003243589104	0.16321560203010194	0.03858329689955049	0.1298424066360817	-0.03461771769335083	0.03755613000419437	0.22109724114459156	0.06527770172574643	1.562494241453685	0.34752776018027376	0.24823929840344422	1.7721151154765076	0.31128058818795723	0.32341376335977967	1.6152719043002766	0.34361985066714246	0.028816593556412404	1.492950990013516	0.5383576017615549	0.07175636336987323	1.24070088209263	0.7193438351178476	0.12169913869025531	1.0440991106307007	0.8925129961760302	0.01617756315111696	1.4753454057777255	0.14837690994960892	0.026768013532335006	1.2272708295306498	0.002720469948513308	0.08876885289561597	1.0169729122178517	-0.14648710104194557
24	0.8	0.04081422872960621	0.9204844312351153	0.3591463193508911	0.03391668282416239	0.8964456675565248	0.47456020023113565	0.003978993762909912	0.5057530812762516	0.4992748872017293	-0.01156810146164916	0.0975583761822654	0.5174827278296462	0.20846684107388452	0.04093264184149356	0.5617372565204617	0.14681794834729955	0.03147916427708642	0.6180375595647989	-0.0537162572597437	0.03009073387014078	0.502202204464538	0.03374783892632769	0.8920770155263745	0.24570194078817237	0.015975238810079787	0.5068982278177295	0.2223061895906736	0.002517650304899146	0.1149609576461429	0.20933527474785882	0.20960867344158954	0.03850823096919898	0.18817654294442057	0.1632194454071095	0.03885103032949542	0.1291969308244543	-0.0350823558546546	0.037230050584955904	0.22080531062252778	0.0653662796643575	1.5630507311297146	0.34678124031645946	0.2549292429197559	1.7718150462503492	0.30542500860587013	0.3177574688779462	1.6143405377223174	0.34201131972323207	0.029299014126788085	1.4928895584229647	0.5383565587564237	0.0706469108671934	1.2393615881162396	0.7194445888238903	0.1219073831159659	1.0441337732588636	0.8917367790384507	0.01558973115404586	1.4751158157803261	0.14866853458739956	0.027095900899772787	1.2270572133830036	0.002324713629547899	0.08955070862254072	1.0170508132115563	-0.14702540515519885
25	0.8333333333333334	0.04078051460417909	0.9206277452042131	0.3588135831066428	0.034063667885930106	0.8962472915199975	0.4743229407371047	0.004951510584323992	0.5062600202476516	0.49962083029234056	-0.011839911261512721	0.0974370877724442	0.5173601993193852	0.20891830016295446	0.04096929080130717	0.561317394969777	0.1471223382293411	0.03169981963863168	0.6181070728505076	-0.05480543245524772	0.02967547388166239	0.5021213591376856	0.03377540429812467	0.8917976759434196	0.24553123939017074	0.017211892002615126	0.5055115370324708	0.22137198823952148	0.002608361480277493	0.11376459589635914	0.20883820156155272	0.20948233804509425	0.03876217356917456	0.18792370727981597	0.16324059686907313	0.03939690020242144	0.1288858661446443	-0.035242581488351354	0.03746683736025911	0.22059465766349182	0.06517007958362317	1.5637423810186013	0.34637470877221105	0.26285879112023697	1.7713068540950594	0.2992350702391102	0.31153716268093506	1.6132166703219555	0.33995205605242645	0.02957985776901707	1.492863825728579	0.5384709881591085	0.06965077460864114	1.2376589454043088	0.719510043696569	0.12246544658186591	1.0437948106490937	0.8907056854279605	0.015146046990370945	1.4747718785806165	0.14853373409748186	0.027187413132558638	1.2267236283811167	0.0020401369532753997	0.08990082214478441	1.0171643143921234	-0.14713464847393393
26	0.8666666666666667	0.04087965818659411	0.9208518352265109	0.35845428667808865	0.03433345636709256	0.8958689210324119	0.47398560948033513	0.005922997516231646	0.5069946737378868	0.5002680621331147	-0.012069812714083132	0.0976873140849088	0.5172639627666646	0.20914719097880338	0.04108976550217687	0.5609248189978835	0.14782928689268524	0.03217231767305115	0.6176004161758738	-0.05626894379991163	0.02916639758271614	0.5024038015727976	0.033922424390941355	0.8915360828789624	0.2452381971424172	0.01844835410455249	0.5040324418534863	0.2204188158205167	0.0029131949864697974	0.11242028973395969	0.2082848336261462	0.209374335982457	0.03891905851709885	0.1878170153082497	0.16320020427628223	0.039965213239402164	0.12888120459814215	-0.0351946386705664	0.038112586537197415	0.2205275757712526	0.06481822442355276	1.5644266375315434	0.34626357290129084	0.2696013558515708	1.7709945085868932	0.29488818544882417	0.3060667170188223	1.6124201273891616	0.33787198694039183	0.02968993911304704	1.4929091050524352	0.5385919396047983	0.06905940287386292	1.235876587596519	0.7196004358748469	0.12373488835887397	1.0429443286563704	0.8895990916715367	0.014937111587814411	1.4744687703571917	0.14808757979193554	0.02713064434053808	1.2263910917049154	0.0018354870387784076	0.08996634598124707	1.0172712374181996	-0.14690747377322652
27	0.9	0.04115849342410162	0.9210725779652756	0.3580612925329921	0.034674314760582234	0.8953722911741012	0.4736267092038841	0.00666703672989206	0.5077211836625443	0.5008088673024398	-0.012251611948491628	0.09829973244908541	0.5172240005338941	0.2092649396100353	0.04143897116588191	0.5607569689430346	0.14859992517795081	0.0327197940192029	0.6169004707023898	-0.057509589859362734	0.028787056378155165	0.5028139026416049	0.03425207212760057	0.8912848906447209	0.24484376241426198	0.019291966728218042	0.502932490327868	0.21986936311994354	0.003192250713892956	0.1115536853858326	0.20786139330004208	0.20929266643443672	0.038965693234383474	0.1877684656489673	0.16308506905980283	0.040385492889114485	0.1290573183112436	-0.03509125843283029	0.03884859109396929	0.2206041063083867	0.0644763910493732	1.5649422764950005	0.3462915752700737	0.2735118510873432	1.771315468990225	0.2941338806135465	0.30105183914504957	1.6117964089400052	0.335853592989303	0.029692818175695156	1.4930095420109397	0.5386651458242754	0.06919311775453893	1.2343926301898207	0.7197795736545469	0.12598443100848652	1.0415626571363863	0.8885254397672719	0.014992887082135841	1.474357885446394	0.14751303909262728	0.026996462319267736	1.2261234909597882	0.0016399395004433395	0.08986863599423127	1.0172889917508097	-0.14652827722029974
